<?xml version="1.0" encoding="UTF-8" standalone="no"?>
<svg
   height="48"
   viewBox="0 -960 960 960"
   width="48"
   version="1.1"
   id="svg1"
   sodipodi:docname="logo.svg"
   inkscape:version="1.3.2 (091e20e, 2023-11-25, custom)"
   xmlns:inkscape="http://www.inkscape.org/namespaces/inkscape"
   xmlns:sodipodi="http://sodipodi.sourceforge.net/DTD/sodipodi-0.dtd"
   xmlns="http://www.w3.org/2000/svg"
   xmlns:svg="http://www.w3.org/2000/svg">
  <defs
     id="defs1" />
  <sodipodi:namedview
     id="namedview1"
     pagecolor="#ffffff"
     bordercolor="#000000"
     borderopacity="0.25"
     inkscape:showpageshadow="2"
     inkscape:pageopacity="0.0"
     inkscape:pagecheckerboard="0"
     inkscape:deskcolor="#d1d1d1"
     inkscape:zoom="16.1875"
     inkscape:cx="23.814672"
     inkscape:cy="21.343629"
     inkscape:window-width="1920"
     inkscape:window-height="991"
     inkscape:window-x="-9"
     inkscape:window-y="-9"
     inkscape:window-maximized="1"
     inkscape:current-layer="svg1" />
  <path
     d="M360-860v-60h240v60H360Zm90 447h60v-230h-60v230Zm30 332q-74 0-139.5-28.5T226-187q-49-49-77.5-114.5T120-441q0-74 28.5-139.5T226-695q49-49 114.5-77.5T480-801q67 0 126 22.5T711-716l51-51 42 42-51 51q36 40 61.5 97T840-441q0 74-28.5 139.5T734-187q-49 49-114.5 77.5T480-81Zm0-60q125 0 212.5-87.5T780-441q0-125-87.5-212.5T480-741q-125 0-212.5 87.5T180-441q0 125 87.5 212.5T480-141Zm0-299Z"
     id="path1"
     style="stroke:#ffffff;stroke-opacity:1;stroke-width:17;stroke-dasharray:none;stroke-linejoin:round" />
</svg>
